# Blender 4.3.2
# www.blender.org
mtllib collision.mtl
o obj_0.007
v 0.000000 -0.000000 0.030000
v -0.037500 0.000000 0.000000
v 0.000000 0.000000 -0.030000
v 0.037500 0.000000 0.000000
v -0.037500 0.018000 0.000000
v 0.000000 0.018000 0.030000
v 0.037500 0.018000 0.000000
v 0.000000 0.018000 -0.030000
vn -0.0000 -1.0000 -0.0000
vn -0.0000 1.0000 -0.0000
vn 0.6247 -0.0000 0.7809
vn 0.6247 -0.0000 -0.7809
vn -0.6247 -0.0000 -0.7809
vn -0.6247 -0.0000 0.7809
vt 1.000000 0.336065
vt 0.672132 0.409836
vt 0.672132 0.073771
vt 1.000000 0.000000
vt 0.672132 0.819672
vt 0.672132 0.483606
vt 1.000000 0.745901
vt 1.000000 0.409836
vt 0.000000 0.419877
vt 0.000000 0.000000
vt 0.336065 0.000000
vt 0.336065 0.419877
vt 0.672131 0.000000
vt 0.672131 0.419877
vt 0.336065 0.839754
vt 0.000000 0.839754
vt 0.672131 0.839754
s 1
usemtl color_14093196
f 1/1/1 2/2/1 3/3/1
f 1/1/1 3/3/1 4/4/1
f 7/5/2 8/6/2 6/7/2
f 5/8/2 6/7/2 8/6/2
f 6/9/3 1/10/3 4/11/3
f 6/9/3 4/11/3 7/12/3
f 4/11/4 3/13/4 8/14/4
f 4/11/4 8/14/4 7/12/4
f 3/9/5 2/12/5 5/15/5
f 3/9/5 5/15/5 8/16/5
f 6/17/6 5/15/6 2/12/6
f 6/17/6 2/12/6 1/14/6
