# Blender 4.3.2
# www.blender.org
mtllib collision.mtl
o obj_0.002
v -0.012339 0.000000 -0.028371
v -0.015252 0.000000 -0.002171
v -0.015252 0.014746 -0.002171
v -0.015252 0.000000 -0.002274
v -0.015287 0.000000 -0.002274
v 0.015198 -0.000000 0.028371
v 0.004104 -0.000000 0.028371
v -0.000126 -0.000000 0.008226
v 0.000068 -0.000000 0.008226
v -0.015252 -0.000000 0.028371
v -0.005013 -0.000000 0.028371
v -0.026994 0.018000 -0.028371
v -0.026994 0.018000 0.028371
v -0.026994 0.000000 -0.028371
v -0.026994 -0.000000 0.028371
v 0.026994 0.018000 0.028371
v 0.015198 0.018000 0.028371
v -0.015252 0.018000 0.028371
v 0.004104 0.018000 0.028371
v -0.005013 0.018000 0.028371
v 0.026994 -0.000000 0.028371
v 0.015198 0.000000 -0.002274
v 0.014813 0.000000 -0.002274
v 0.014883 0.000000 -0.002474
v 0.015068 0.000000 -0.003003
v 0.015119 0.000000 -0.003148
v 0.015126 0.000000 -0.003168
v 0.015179 0.000000 -0.003319
v 0.015198 0.000000 -0.003374
v 0.019848 0.000000 -0.016680
v 0.026994 0.000000 -0.028371
v 0.015663 0.000000 -0.016737
v 0.015645 0.000000 -0.017679
v 0.015598 0.000000 -0.016738
v 0.012780 0.000000 -0.028371
v 0.015561 0.000000 -0.016002
v 0.015462 0.000000 -0.014319
v 0.015396 0.000000 -0.012837
v 0.015383 0.000000 -0.012451
v 0.015645 0.018000 -0.017679
v 0.015663 0.018000 -0.016737
v 0.019848 0.018000 -0.016680
v 0.012780 0.018000 -0.028371
v 0.015598 0.018000 -0.016738
v 0.015462 0.018000 -0.014319
v 0.015561 0.018000 -0.016002
v 0.014883 0.018000 -0.002474
v 0.015396 0.018000 -0.012837
v 0.014813 0.018000 -0.002274
v 0.015383 0.018000 -0.012451
v 0.015068 0.018000 -0.003003
v 0.015345 0.018000 -0.011307
v 0.015246 0.018000 -0.008241
v 0.015303 0.018000 -0.009747
v 0.015119 0.018000 -0.003148
v 0.015210 0.018000 -0.006798
v 0.015126 0.018000 -0.003168
v 0.015203 0.018000 -0.006038
v 0.015179 0.018000 -0.003319
v 0.015198 0.018000 -0.005469
v 0.015198 0.018000 -0.003374
v -0.015252 0.018000 -0.005052
v -0.015252 0.018000 -0.002274
v -0.015252 0.018000 -0.002171
v -0.012339 0.018000 -0.028371
v -0.015264 0.018000 -0.006450
v -0.015300 0.018000 -0.007959
v -0.015357 0.018000 -0.009561
v -0.015426 0.018000 -0.011199
v -0.015567 0.018000 -0.014277
v -0.015498 0.018000 -0.012762
v 0.015345 0.000000 -0.011307
v 0.015303 0.000000 -0.009747
v 0.015246 0.000000 -0.008241
v 0.015210 0.000000 -0.006798
v 0.015203 0.000000 -0.006038
v 0.015198 0.000000 -0.005469
v -0.015252 0.000000 -0.005052
v -0.015264 0.000000 -0.006450
v -0.015300 0.000000 -0.007959
v -0.015357 0.000000 -0.009561
v -0.015426 0.000000 -0.011199
v -0.015498 0.000000 -0.012762
v -0.015567 0.000000 -0.014277
v -0.015570 0.000000 -0.014323
v -0.015678 0.000000 -0.016038
v -0.015801 0.000000 -0.017787
v -0.015828 0.000000 -0.016833
v -0.020133 0.000000 -0.016731
v -0.000031 -0.000000 0.008511
v -0.001821 -0.000000 0.013665
v 0.001689 -0.000000 0.013665
v 0.026994 0.018000 -0.028371
v 0.015198 0.018000 -0.002274
v -0.015570 0.018000 -0.014323
v -0.015678 0.018000 -0.016038
v -0.015801 0.018000 -0.017787
v -0.020133 0.018000 -0.016731
v -0.015828 0.018000 -0.016833
v -0.015287 0.018000 -0.002274
v 0.000068 0.018000 0.008226
v -0.000126 0.018000 0.008226
v -0.000031 0.018000 0.008511
v -0.001821 0.018000 0.013665
v 0.001689 0.018000 0.013665
vn 1.0000 -0.0000 -0.0000
vn -1.0000 -0.0000 -0.0000
vn 0.9478 -0.0000 -0.3187
vn 0.9479 -0.0000 -0.3187
vn -0.0000 -0.0000 1.0000
vn -0.9481 -0.0000 0.3179
vn -0.0000 -1.0000 -0.0000
vn -0.0000 1.0000 -0.0000
vn -0.0000 -0.0000 -1.0000
vn -0.9446 -0.0000 -0.3281
vn 0.9486 -0.0000 -0.3166
vn 0.9440 -0.0000 0.3299
vt 0.339336 0.648567
vt 0.339336 0.921633
vt 0.170196 0.648567
vt 0.808513 0.606400
vt 0.807943 0.666667
vt 0.807943 0.333333
vt 0.808513 0.333333
vt 0.339920 0.648567
vt 0.980104 0.000000
vt 0.980104 0.333333
vt 0.979913 0.000000
vt 0.979579 0.333333
vt 0.315132 0.333333
vt 0.000000 0.333333
vt 0.000000 0.000000
vt 0.315132 0.000000
vt 0.977776 0.333333
vt 0.912243 0.333333
vt 0.977776 0.000000
vt 0.665100 0.666667
vt 0.665100 1.000000
vt 0.599867 1.000000
vt 0.715750 1.000000
vt 0.715750 0.666667
vt 0.912243 0.000000
vt 0.599867 0.666667
vt 0.234400 0.478316
vt 0.232264 0.478316
vt 0.232652 0.477206
vt 0.233679 0.474268
vt 0.233960 0.473461
vt 0.234000 0.473351
vt 0.234292 0.472513
vt 0.234400 0.472205
vt 0.260233 0.398283
vt 0.299933 0.648566
vt 0.299933 0.333333
vt 0.236983 0.397966
vt 0.236883 0.392733
vt 0.236622 0.397962
vt 0.150345 0.536650
vt 0.220966 0.333333
vt 0.236417 0.402050
vt 0.235867 0.411400
vt 0.235500 0.419633
vt 0.235429 0.421777
vt 0.234983 0.436800
vt 0.235217 0.428133
vt 0.234667 0.445167
vt 0.362884 0.397966
vt 0.339633 0.398283
vt 0.362984 0.392733
vt 0.378901 0.333333
vt 0.449522 0.536650
vt 0.363245 0.397962
vt 0.363450 0.402050
vt 0.365467 0.460567
vt 0.365438 0.457406
vt 0.367603 0.478316
vt 0.367215 0.477206
vt 0.364000 0.411400
vt 0.366188 0.474268
vt 0.364367 0.419633
vt 0.364438 0.421777
vt 0.364650 0.428133
vt 0.364883 0.436800
vt 0.365200 0.445167
vt 0.365907 0.473461
vt 0.365867 0.473351
vt 0.365400 0.453183
vt 0.365575 0.472513
vt 0.365467 0.472205
vt 0.534634 0.478887
vt 0.450600 0.536650
vt 0.534634 0.478316
vt 0.534634 0.462883
vt 0.534700 0.455116
vt 0.534900 0.446733
vt 0.535216 0.437833
vt 0.535600 0.428733
vt 0.536000 0.420050
vt 0.536384 0.411633
vt 0.234467 0.453183
vt 0.234428 0.457406
vt 0.234400 0.460567
vt 0.065233 0.462883
vt 0.149266 0.536650
vt 0.065233 0.478316
vt 0.065166 0.455116
vt 0.064967 0.446733
vt 0.064650 0.437833
vt 0.064267 0.428733
vt 0.063867 0.420050
vt 0.063483 0.411633
vt 0.063467 0.411375
vt 0.062867 0.401850
vt 0.062183 0.392133
vt 0.038116 0.398000
vt 0.081417 0.333333
vt 0.062034 0.397433
vt 0.065042 0.478316
vt 0.065233 0.478887
vt 0.000000 0.648566
vt 0.065233 0.648566
vt 0.234400 0.648566
vt 0.149795 0.538235
vt 0.139850 0.566866
vt 0.122117 0.648566
vt 0.159350 0.566866
vt 0.172767 0.648566
vt 0.629363 0.000000
vt 0.629363 0.333333
vt 0.583855 0.648567
vt 0.583855 0.981900
vt 0.504888 0.648567
vt 0.504888 0.981900
vt 0.830826 0.333333
vt 0.830826 0.000000
vt 0.365467 0.478316
vt 0.365467 0.648566
vt 0.536400 0.411375
vt 0.561750 0.398000
vt 0.537000 0.401850
vt 0.537683 0.392133
vt 0.537833 0.397433
vt 0.518450 0.333333
vt 0.599867 0.333333
vt 0.599867 0.648566
vt 0.534825 0.478316
vt 0.450071 0.538235
vt 0.477750 0.648566
vt 0.460017 0.566866
vt 0.534634 0.648566
vt 0.427100 0.648566
vt 0.440516 0.566866
vt 0.979913 0.333333
vt 0.000000 0.981900
vt 0.000000 0.648567
vt 0.170195 0.981900
vt 0.339336 0.981900
vt 0.170196 0.981900
vt 0.808513 0.666667
vt 0.339920 0.981900
vt 0.339919 0.981900
vt 0.339919 0.648567
vt 0.980658 0.333333
vt 0.980658 0.666667
vt 0.979579 0.666667
vt 0.170195 0.648567
s 1
usemtl Material.011
f 2/1/1 3/2/1 10/3/1
f 3/4/2 63/5/2 4/6/2
f 3/4/2 4/6/2 2/7/2
f 5/8/3 3/2/4 2/1/3
f 4/9/5 63/10/5 5/11/5
f 2/7/6 11/12/6 3/4/6
f 13/13/2 12/14/2 14/15/2
f 13/13/2 14/15/2 15/16/2
f 16/17/5 17/18/5 21/19/5
f 10/20/5 18/21/5 13/22/5
f 20/21/5 11/20/5 19/23/5
f 7/24/5 19/23/5 11/20/5
f 21/19/5 17/18/5 6/25/5
f 10/20/5 13/22/5 15/26/5
f 22/27/7 23/28/7 24/29/7
f 22/27/7 24/29/7 25/30/7
f 22/27/7 25/30/7 26/31/7
f 22/27/7 26/31/7 27/32/7
f 22/27/7 27/32/7 28/33/7
f 22/27/7 28/33/7 29/34/7
f 30/35/7 21/36/7 29/34/7
f 31/37/7 21/36/7 30/35/7
f 22/27/7 29/34/7 21/36/7
f 30/35/7 32/38/7 33/39/7
f 33/39/7 31/37/7 30/35/7
f 34/40/7 9/41/7 33/39/7
f 31/37/7 33/39/7 35/42/7
f 34/40/7 33/39/7 32/38/7
f 36/43/7 9/41/7 34/40/7
f 37/44/7 9/41/7 36/43/7
f 38/45/7 9/41/7 37/44/7
f 39/46/7 9/41/7 38/45/7
f 73/47/7 9/41/7 72/48/7
f 73/47/7 74/49/7 9/41/7
f 41/50/8 42/51/8 40/52/8
f 42/51/8 93/37/8 40/52/8
f 43/53/8 101/54/8 40/52/8
f 40/52/8 44/55/8 41/50/8
f 44/55/8 40/52/8 101/54/8
f 46/56/8 44/55/8 101/54/8
f 60/57/8 58/58/8 101/54/8
f 49/59/8 47/60/8 101/54/8
f 45/61/8 46/56/8 101/54/8
f 47/60/8 51/62/8 101/54/8
f 48/63/8 45/61/8 101/54/8
f 50/64/8 42/51/8 48/63/8
f 48/63/8 42/51/8 45/61/8
f 50/64/8 48/63/8 101/54/8
f 52/65/8 50/64/8 101/54/8
f 54/66/8 52/65/8 101/54/8
f 53/67/8 54/66/8 101/54/8
f 51/62/8 55/68/8 101/54/8
f 55/68/8 57/69/8 101/54/8
f 56/70/8 53/67/8 101/54/8
f 57/69/8 59/71/8 101/54/8
f 58/58/8 42/51/8 56/70/8
f 56/70/8 42/51/8 53/67/8
f 58/58/8 56/70/8 101/54/8
f 59/71/8 61/72/8 101/54/8
f 60/57/8 101/54/8 61/72/8
f 44/55/8 46/56/8 41/50/8
f 42/51/8 41/50/8 46/56/8
f 46/56/8 45/61/8 42/51/8
f 42/51/8 50/64/8 52/65/8
f 42/51/8 52/65/8 54/66/8
f 54/66/8 53/67/8 42/51/8
f 42/51/8 58/58/8 60/57/8
f 42/51/8 60/57/8 61/72/8
f 64/73/8 102/74/8 63/75/8
f 62/76/8 63/75/8 102/74/8
f 62/76/8 102/74/8 66/77/8
f 66/77/8 102/74/8 67/78/8
f 67/78/8 102/74/8 68/79/8
f 68/79/8 102/74/8 69/80/8
f 71/81/8 102/74/8 70/82/8
f 69/80/8 102/74/8 71/81/8
f 36/43/7 30/35/7 37/44/7
f 38/45/7 37/44/7 30/35/7
f 72/48/7 9/41/7 39/46/7
f 74/49/7 75/83/7 9/41/7
f 75/83/7 76/84/7 9/41/7
f 76/84/7 77/85/7 9/41/7
f 77/85/7 29/34/7 9/41/7
f 23/28/7 9/41/7 24/29/7
f 24/29/7 9/41/7 25/30/7
f 25/30/7 9/41/7 26/31/7
f 74/49/7 30/35/7 75/83/7
f 73/47/7 30/35/7 74/49/7
f 26/31/7 9/41/7 27/32/7
f 27/32/7 9/41/7 28/33/7
f 28/33/7 9/41/7 29/34/7
f 76/84/7 75/83/7 30/35/7
f 77/85/7 76/84/7 30/35/7
f 72/48/7 39/46/7 30/35/7
f 39/46/7 38/45/7 30/35/7
f 73/47/7 72/48/7 30/35/7
f 34/40/7 32/38/7 36/43/7
f 32/38/7 30/35/7 36/43/7
f 29/34/7 77/85/7 30/35/7
f 78/86/7 8/87/7 4/88/7
f 79/89/7 80/90/7 8/87/7
f 78/86/7 79/89/7 8/87/7
f 80/90/7 81/91/7 8/87/7
f 81/91/7 82/92/7 8/87/7
f 82/92/7 83/93/7 8/87/7
f 84/94/7 85/95/7 8/87/7
f 83/93/7 84/94/7 8/87/7
f 85/95/7 86/96/7 8/87/7
f 86/96/7 87/97/7 8/87/7
f 82/92/7 81/91/7 89/98/7
f 1/99/7 8/87/7 87/97/7
f 89/98/7 14/14/7 87/97/7
f 88/100/7 89/98/7 87/97/7
f 1/99/7 87/97/7 14/14/7
f 5/101/7 2/102/7 15/103/7
f 88/100/7 86/96/7 89/98/7
f 10/104/7 15/103/7 2/102/7
f 86/96/7 85/95/7 89/98/7
f 87/97/7 86/96/7 88/100/7
f 85/95/7 84/94/7 89/98/7
f 84/94/7 83/93/7 89/98/7
f 83/93/7 82/92/7 89/98/7
f 81/91/7 80/90/7 89/98/7
f 5/101/7 89/98/7 78/86/7
f 80/90/7 79/89/7 89/98/7
f 78/86/7 89/98/7 79/89/7
f 4/88/7 5/101/7 78/86/7
f 6/105/7 22/27/7 21/36/7
f 90/106/7 8/87/7 9/41/7
f 2/102/7 4/88/7 8/87/7
f 8/87/7 91/107/7 2/102/7
f 90/106/7 91/107/7 8/87/7
f 11/108/7 2/102/7 91/107/7
f 89/98/7 5/101/7 15/103/7
f 14/14/7 89/98/7 15/103/7
f 92/109/7 7/110/7 91/107/7
f 11/108/7 91/107/7 7/110/7
f 23/28/7 7/110/7 92/109/7
f 90/106/7 9/41/7 92/109/7
f 23/28/7 92/109/7 9/41/7
f 35/42/7 33/39/7 9/41/7
f 90/106/7 92/109/7 91/107/7
f 21/16/1 31/111/1 16/13/1
f 31/111/1 93/112/1 16/13/1
f 35/113/9 43/114/9 31/115/9
f 93/116/9 31/115/9 43/114/9
f 65/117/9 1/118/9 14/25/9
f 65/117/9 14/25/9 12/18/9
f 61/72/8 59/71/8 94/119/8
f 59/71/8 57/69/8 94/119/8
f 57/69/8 55/68/8 94/119/8
f 55/68/8 51/62/8 94/119/8
f 51/62/8 47/60/8 94/119/8
f 49/59/8 94/119/8 47/60/8
f 94/119/8 16/36/8 61/72/8
f 17/120/8 16/36/8 94/119/8
f 42/51/8 61/72/8 16/36/8
f 43/53/8 40/52/8 93/37/8
f 70/82/8 102/74/8 95/121/8
f 95/121/8 98/122/8 70/82/8
f 95/121/8 102/74/8 96/123/8
f 96/123/8 102/74/8 97/124/8
f 99/125/8 97/124/8 98/122/8
f 65/126/8 12/127/8 97/124/8
f 98/122/8 97/124/8 12/127/8
f 12/127/8 13/128/8 98/122/8
f 98/122/8 13/128/8 100/129/8
f 100/129/8 13/128/8 64/73/8
f 100/129/8 62/76/8 98/122/8
f 62/76/8 66/77/8 98/122/8
f 63/75/8 62/76/8 100/129/8
f 66/77/8 67/78/8 98/122/8
f 67/78/8 68/79/8 98/122/8
f 68/79/8 69/80/8 98/122/8
f 69/80/8 71/81/8 98/122/8
f 71/81/8 70/82/8 98/122/8
f 99/125/8 98/122/8 96/123/8
f 96/123/8 98/122/8 95/121/8
f 97/124/8 99/125/8 96/123/8
f 93/37/8 42/51/8 16/36/8
f 101/54/8 102/74/8 103/130/8
f 64/73/8 20/131/8 104/132/8
f 103/130/8 102/74/8 104/132/8
f 64/73/8 104/132/8 102/74/8
f 65/126/8 97/124/8 102/74/8
f 18/133/8 64/73/8 13/128/8
f 19/134/8 49/59/8 105/135/8
f 19/134/8 105/135/8 104/132/8
f 19/134/8 104/132/8 20/131/8
f 49/59/8 101/54/8 105/135/8
f 103/130/8 105/135/8 101/54/8
f 104/132/8 105/135/8 103/130/8
f 49/17/5 22/11/5 94/136/5
f 94/137/2 22/138/2 17/139/2
f 35/111/10 9/118/10 43/112/10
f 1/6/11 65/5/11 8/127/11
f 64/140/1 18/141/1 3/2/1
f 63/5/2 3/4/2 64/142/2
f 100/143/3 64/140/3 3/2/4
f 100/143/3 3/2/4 5/8/3
f 100/136/5 5/11/5 63/10/5
f 19/144/12 7/145/12 23/115/12
f 49/116/12 19/144/12 23/115/12
f 8/146/9 102/147/9 9/12/9
f 101/148/9 9/12/9 102/147/9
f 65/5/11 102/26/11 8/127/11
f 64/142/6 3/4/6 20/148/6
f 11/12/6 20/148/6 3/4/6
f 10/3/1 3/2/1 18/141/1
f 101/117/10 43/112/10 9/118/10
f 49/17/5 23/19/5 22/11/5
f 6/149/2 17/139/2 22/138/2
