# Blender 4.3.2
# www.blender.org
mtllib collision.mtl
o obj_0.003
v -0.008511 0.000000 -0.003690
v -0.005439 0.000000 -0.003690
v -0.002088 0.018000 -0.003933
v -0.003618 0.018000 -0.003753
v 0.002775 0.018000 -0.006696
v 0.003123 0.018000 -0.007491
v -0.020256 0.018000 -0.028371
v -0.000801 0.018000 -0.004218
v 0.003405 0.018000 -0.008451
v -0.020256 0.018000 0.028371
v 0.003582 0.018000 -0.009549
v 0.001173 0.000000 -0.005034
v 0.000297 0.000000 -0.004596
v 0.003645 0.018000 -0.010806
v -0.000906 0.018000 -0.017112
v 0.003576 0.018000 -0.012138
v -0.002241 0.018000 -0.017355
v -0.003795 0.018000 -0.017508
v -0.005589 0.018000 -0.017562
v -0.003618 0.000000 -0.003753
v -0.008511 0.018000 -0.017562
v -0.005043 0.018000 -0.028371
v -0.002088 0.000000 -0.003933
v -0.008511 0.018000 0.007068
v -0.004551 0.018000 0.007068
v -0.000801 0.000000 -0.004218
v -0.008511 0.018000 0.028371
v 0.006580 0.018000 0.003953
v 0.006744 0.018000 0.003873
v 0.008127 0.018000 0.003099
v 0.009489 0.018000 0.002184
v 0.010779 0.018000 0.001119
v 0.006516 0.018000 0.003843
v -0.000906 0.000000 -0.017112
v -0.002241 0.000000 -0.017355
v 0.005358 0.018000 0.004548
v -0.003795 0.000000 -0.017508
v -0.005589 0.000000 -0.017562
v 0.020256 0.018000 0.027573
v -0.020256 0.000000 -0.028371
v -0.005043 0.000000 -0.028371
v 0.007815 0.018000 0.028371
v 0.006159 0.018000 -0.026583
v -0.008511 0.018000 -0.003690
v 0.000984 0.018000 -0.027945
v -0.005439 0.018000 -0.003690
v 0.001830 0.000000 -0.005502
v 0.015246 0.018000 -0.016272
v 0.002349 0.000000 -0.006051
v 0.013437 0.018000 -0.020688
v 0.002775 0.000000 -0.006696
v 0.010350 0.018000 -0.024177
v 0.003123 0.000000 -0.007491
v 0.003390 0.018000 -0.013242
v 0.003405 0.000000 -0.008451
v 0.003105 0.018000 -0.014130
v 0.003582 0.000000 -0.009549
v 0.003645 0.000000 -0.010806
v 0.002742 0.018000 -0.014850
v 0.002304 0.018000 -0.015435
v 0.003576 0.000000 -0.012138
v 0.001776 0.018000 -0.015927
v 0.001077 0.018000 -0.016386
v 0.015246 0.000000 -0.016272
v 0.000195 0.018000 -0.016785
v 0.013437 0.000000 -0.020688
v -0.008511 0.000000 -0.017562
v 0.006580 0.014746 0.003953
v 0.010350 0.000000 -0.024177
v 0.013089 0.018000 -0.001566
v 0.003390 0.000000 -0.013242
v 0.013995 0.018000 -0.003132
v 0.003105 0.000000 -0.014130
v 0.014763 0.018000 -0.004857
v 0.002742 0.000000 -0.014850
v 0.015351 0.018000 -0.006786
v 0.002304 0.000000 -0.015435
v 0.015696 0.018000 -0.008886
v 0.015813 0.018000 -0.011199
v 0.001776 0.000000 -0.015927
v 0.001077 0.000000 -0.016386
v 0.012012 0.018000 -0.000117
v 0.000195 0.000000 -0.016785
v 0.000297 0.018000 -0.004596
v 0.013089 0.000000 -0.001566
v 0.001173 0.018000 -0.005034
v 0.013995 0.000000 -0.003132
v 0.014763 0.000000 -0.004857
v 0.001830 0.018000 -0.005502
v 0.015351 0.000000 -0.006786
v 0.002349 0.018000 -0.006051
v 0.015696 0.000000 -0.008886
v 0.015813 0.000000 -0.011199
v -0.004551 -0.000000 0.007068
v -0.008511 -0.000000 0.007068
v -0.008511 -0.000000 0.028371
v -0.020256 -0.000000 0.028371
v 0.012012 0.000000 -0.000117
v 0.010779 -0.000000 0.001119
v 0.009489 -0.000000 0.002184
v 0.008127 -0.000000 0.003099
v 0.006744 -0.000000 0.003873
v 0.006580 -0.000000 0.003953
v 0.006516 -0.000000 0.003843
v 0.005358 -0.000000 0.004548
v 0.020256 -0.000000 0.027573
v 0.007815 -0.000000 0.028371
v 0.000984 0.000000 -0.027945
v 0.006159 0.000000 -0.026583
vn -0.0000 -1.0000 -0.0000
vn -0.0000 1.0000 -0.0000
vn -0.0346 -0.0000 -0.9994
vn 1.0000 -0.0000 -0.0000
vn 0.4380 -0.0000 0.8990
vn -0.2847 -0.0000 0.9586
vn 0.8654 -0.0000 -0.5011
vn -0.8659 -0.0000 0.5002
vn 0.9565 -0.0000 0.2916
vn 0.5200 -0.0000 0.8542
vn -0.4378 -0.0000 -0.8991
vn 0.9868 -0.0000 0.1621
vn -0.3255 -0.0000 -0.9455
vn 0.8026 -0.0000 0.5965
vn -0.4472 -0.0000 -0.8944
vn -0.5802 -0.0000 -0.8145
vn 0.9987 -0.0000 0.0505
vn -0.9987 -0.0000 0.0517
vn 0.9938 -0.0000 -0.1111
vn 0.9254 -0.0000 -0.3791
vn 0.7489 -0.0000 -0.6626
vn -0.0000 -0.0000 -1.0000
vn -0.9861 -0.0000 0.1661
vn -0.7267 -0.0000 -0.6870
vn -0.8005 -0.0000 0.5993
vn -0.8344 -0.0000 -0.5511
vn -0.6817 -0.0000 0.7316
vn -0.9161 -0.0000 -0.4010
vn -1.0000 -0.0000 -0.0000
vn -0.5489 -0.0000 0.8359
vn -0.9595 -0.0000 -0.2818
vn -0.9873 -0.0000 -0.1591
vn -0.0000 -0.0000 1.0000
vn -0.9987 -0.0000 -0.0501
vn 0.8656 -0.0000 0.5008
vn 0.9135 -0.0000 0.4067
vn 0.0705 -0.0000 -0.9975
vn -0.1168 -0.0000 -0.9932
vn -0.2162 -0.0000 -0.9763
vn -0.1791 -0.0000 0.9838
vn -0.0980 -0.0000 0.9952
vn -0.8649 -0.0000 0.5020
vn -0.0301 -0.0000 0.9995
vn 0.0640 -0.0000 0.9979
vn 0.4884 -0.0000 0.8726
vn 0.4979 -0.0000 -0.8672
vn 0.5576 -0.0000 0.8301
vn 0.5577 -0.0000 0.8301
vn 0.2545 -0.0000 -0.9671
vn 0.6367 -0.0000 0.7712
vn 0.6366 -0.0000 0.7712
vn 0.7080 -0.0000 0.7062
vn -0.9522 -0.0000 0.3056
vn -0.8929 -0.0000 0.4502
vn -0.4122 -0.0000 0.9111
vt 0.410040 0.469339
vt 0.392333 0.531351
vt 0.392333 0.469339
vt 0.490451 0.204278
vt 0.467625 0.204278
vt 0.472744 0.142266
vt 0.410507 0.189753
vt 0.453427 0.140866
vt 0.446614 0.064899
vt 0.440268 0.066784
vt 0.435720 0.002456
vt 0.454309 0.063498
vt 0.420537 0.468977
vt 0.415159 0.531351
vt 0.473608 0.062305
vt 0.470461 0.000000
vt 0.490451 0.062305
vt 0.463267 0.062616
vt 0.429356 0.467939
vt 0.436775 0.466296
vt 0.472276 0.516826
vt 0.462247 0.141904
vt 0.490451 0.327073
vt 0.558152 0.327073
vt 0.425396 0.124940
vt 0.427852 0.128657
vt 0.372152 0.162862
vt 0.379259 0.169987
vt 0.386695 0.176126
vt 0.403465 0.186323
vt 0.402518 0.185862
vt 0.403832 0.185689
vt 0.434630 0.134520
vt 0.446009 0.139223
vt 0.396344 0.327073
vt 0.409175 0.389379
vt 0.412323 0.327073
vt 0.419517 0.389689
vt 0.447064 0.329529
vt 0.428474 0.390572
vt 0.324632 0.322474
vt 0.813241 0.000000
vt 0.823624 0.000000
vt 0.813241 0.345853
vt 0.688724 0.691706
vt 0.688724 0.345853
vt 0.811438 0.691706
vt 0.776992 0.345853
vt 0.697084 0.000000
vt 0.776992 0.000000
vt 0.951600 0.691706
vt 0.950611 0.691706
vt 0.950611 0.629176
vt 0.374114 0.654147
vt 0.374114 1.000000
vt 0.367988 1.000000
vt 0.697083 0.283323
vt 0.697083 0.345853
vt 0.558151 0.345853
vt 0.324631 0.691706
vt 0.323957 0.691706
vt 0.324631 0.629176
vt 0.323957 0.345853
vt 0.206649 0.345853
vt 0.206649 0.691706
vt 0.195661 0.691706
vt 0.315432 0.691706
vt 0.315432 0.345853
vt 0.322480 0.691706
vt 0.322480 0.345853
vt 0.307879 0.629176
vt 0.307879 0.691706
vt 0.218674 0.345853
vt 0.790165 0.000000
vt 0.796787 0.345853
vt 0.790165 0.345853
vt 0.168935 0.691706
vt 0.168935 0.345853
vt 0.177055 0.345853
vt 0.784736 0.345853
vt 0.784736 0.000000
vt 0.780516 0.345853
vt 0.392333 0.389379
vt 0.324632 0.327073
vt 0.218674 0.691706
vt 0.231973 0.691706
vt 0.231973 0.345853
vt 0.863971 0.000000
vt 0.871640 0.345853
vt 0.863971 0.345853
vt 0.324632 0.654146
vt 0.392333 0.654146
vt 0.261314 0.345853
vt 0.488237 0.508473
vt 0.480266 0.512935
vt 0.451940 0.458895
vt 0.478951 0.512762
vt 0.479318 0.513396
vt 0.496089 0.503199
vt 0.454932 0.455730
vt 0.503524 0.497060
vt 0.261314 0.691706
vt 0.177055 0.691706
vt 0.287132 0.691706
vt 0.287132 0.345853
vt 0.486439 0.654146
vt 0.448153 0.461593
vt 0.558152 0.649547
vt 0.082748 0.691706
vt 0.082748 0.345853
vt 0.857524 0.345853
vt 0.558152 0.000000
vt 0.780516 0.000000
vt 0.420779 0.093571
vt 0.420381 0.101249
vt 0.350242 0.098983
vt 0.421851 0.087207
vt 0.353510 0.069741
vt 0.423494 0.082088
vt 0.844214 0.345853
vt 0.844214 0.000000
vt 0.847869 0.345853
vt 0.894543 0.000000
vt 0.897933 0.000000
vt 0.897933 0.345853
vt 0.894543 0.345853
vt 0.363938 0.044287
vt 0.428111 0.074566
vt 0.425586 0.077938
vt 0.841028 0.345853
vt 0.841028 0.000000
vt 0.890239 0.345853
vt 0.890239 0.000000
vt 0.000000 0.345853
vt 0.000000 0.000000
vt 0.324632 0.000000
vt 0.382687 0.654147
vt 0.382687 1.000000
vt 0.378942 1.000000
vt 0.381732 0.024175
vt 0.405890 0.010306
vt 0.431155 0.071730
vt 0.435184 0.069084
vt 0.884945 0.345853
vt 0.884945 0.000000
vt 0.352905 0.124421
vt 0.350916 0.112316
vt 0.420744 0.108494
vt 0.421764 0.114823
vt 0.878788 0.000000
vt 0.878788 0.345853
vt 0.324632 0.345853
vt 0.439680 0.137044
vt 0.883250 0.691706
vt 0.883250 0.345853
vt 0.950611 0.345853
vt 0.871640 0.000000
vt 0.185886 0.691706
vt 0.185886 0.345853
vt 0.501051 0.351248
vt 0.451629 0.398803
vt 0.476893 0.337379
vt 0.442516 0.393857
vt 0.195661 0.345853
vt 0.430843 0.131822
vt 0.460932 0.414280
vt 0.529273 0.396814
vt 0.462005 0.420644
vt 0.518846 0.371360
vt 0.454672 0.401639
vt 0.049056 0.691706
vt 0.049056 0.345853
vt 0.394546 0.181400
vt 0.365944 0.154510
vt 0.447600 0.396157
vt 0.457197 0.405011
vt 0.697084 0.345853
vt 0.360722 0.145483
vt 0.423390 0.120357
vt 0.804381 0.000000
vt 0.804381 0.345853
vt 0.823624 0.345853
vt 0.356295 0.135540
vt 0.490451 0.142266
vt 0.532541 0.426056
vt 0.436169 0.391973
vt 0.796787 0.000000
vt 0.529878 0.451494
vt 0.462039 0.435567
vt 0.531867 0.439389
vt 0.526489 0.462613
vt 0.461019 0.441896
vt 0.522062 0.472556
vt 0.459394 0.447430
vt 0.516840 0.481583
vt 0.510632 0.489935
vt 0.457387 0.452013
vt 0.462402 0.428322
vt 0.367988 0.654147
vt 0.360472 1.000000
vt 0.360472 0.654147
vt 0.443104 0.464117
vt 0.351648 0.654147
vt 0.324631 1.000000
vt 0.324631 0.654147
vt 0.341390 0.654147
vt 0.405398 1.000000
vt 0.405398 0.654147
vt 0.811438 0.345853
vt 0.558152 0.345853
vt 0.351648 1.000000
vt 0.558152 0.691706
vt 0.341390 1.000000
vt 0.883251 0.345853
vt 0.883251 0.691706
vt 0.951600 0.345853
vt 0.959979 0.691706
vt 0.959979 0.345853
vt 0.021185 0.691706
vt 0.000000 0.691706
vt 0.021185 0.345853
vt 0.968318 0.691706
vt 0.968318 0.345853
vt 0.976331 0.691706
vt 0.976331 0.345853
vt 0.459290 0.409162
vt 0.984116 0.691706
vt 0.984116 0.345853
vt 0.558151 0.000000
vt 0.697083 0.000000
vt 0.324631 0.345853
vt 0.307879 0.345853
vt 0.857524 0.000000
vt 0.852243 0.345853
vt 0.852243 0.000000
vt 0.847869 0.000000
vt 0.378942 0.654147
s 1
usemtl Material.012
f 2/1/1 95/2/1 1/3/1
f 24/4/2 25/5/2 46/6/2
f 25/5/2 36/7/2 3/8/2
f 15/9/2 65/10/2 45/11/2
f 15/9/2 45/11/2 17/12/2
f 20/13/1 94/14/1 2/1/1
f 19/15/2 22/16/2 21/17/2
f 17/12/2 45/11/2 18/18/2
f 23/19/1 94/14/1 20/13/1
f 26/20/1 105/21/1 23/19/1
f 3/8/2 4/22/2 25/5/2
f 4/22/2 46/6/2 25/5/2
f 27/23/2 24/4/2 10/24/2
f 5/25/2 91/26/2 82/27/2
f 32/28/2 82/27/2 91/26/2
f 31/29/2 32/28/2 91/26/2
f 28/30/2 29/31/2 33/32/2
f 33/32/2 86/33/2 36/7/2
f 8/34/2 3/8/2 36/7/2
f 42/35/2 36/7/2 25/5/2
f 38/36/1 41/37/1 37/38/1
f 37/38/1 108/39/1 35/40/1
f 39/41/2 28/30/2 36/7/2
f 39/41/2 36/7/2 42/35/2
f 20/42/3 2/43/3 4/44/3
f 27/45/4 96/46/4 24/47/4
f 21/48/4 1/49/4 67/50/4
f 29/51/5 28/52/5 68/53/5
f 83/54/6 65/55/6 15/56/6
f 68/57/7 28/58/7 39/59/7
f 28/60/8 33/61/8 68/62/8
f 104/63/8 68/62/8 33/61/8
f 90/64/9 76/65/9 74/66/9
f 36/67/10 105/68/10 33/69/10
f 104/70/10 33/69/10 105/68/10
f 105/68/11 36/67/11 68/71/11
f 28/72/11 68/71/11 36/67/11
f 90/64/12 92/73/12 76/65/12
f 13/74/13 8/75/13 84/76/13
f 82/77/14 98/78/14 85/79/14
f 86/80/15 12/81/15 84/76/15
f 13/74/15 84/76/15 12/81/15
f 89/82/16 12/81/16 86/80/16
f 38/36/1 67/83/1 41/37/1
f 40/84/1 41/37/1 67/83/1
f 78/85/17 92/73/17 79/86/17
f 93/87/17 79/86/17 92/73/17
f 61/88/18 14/89/18 16/90/18
f 97/91/1 1/3/1 95/2/1
f 96/92/1 97/91/1 95/2/1
f 93/87/19 64/93/19 79/86/19
f 101/94/1 102/95/1 47/96/1
f 104/97/1 47/96/1 102/95/1
f 103/98/1 104/97/1 102/95/1
f 100/99/1 49/100/1 99/101/1
f 48/102/19 79/86/19 64/93/19
f 85/79/14 70/103/14 82/77/14
f 48/102/20 64/93/20 50/104/20
f 66/105/20 50/104/20 64/93/20
f 107/106/1 94/14/1 105/21/1
f 105/21/1 12/107/1 104/97/1
f 66/105/21 52/72/21 50/104/21
f 103/98/1 106/108/1 105/21/1
f 107/106/1 105/21/1 106/108/1
f 22/109/22 41/110/22 40/78/22
f 22/109/22 40/78/22 7/77/22
f 61/88/23 16/90/23 54/111/23
f 7/112/2 21/17/2 22/16/2
f 22/16/2 18/18/2 45/11/2
f 19/15/2 18/18/2 22/16/2
f 47/113/16 12/81/16 89/82/16
f 16/114/2 14/115/2 79/116/2
f 89/82/24 91/48/24 47/113/24
f 49/50/24 47/113/24 91/48/24
f 54/117/2 16/114/2 48/118/2
f 56/119/2 54/117/2 48/118/2
f 60/120/25 77/121/25 59/122/25
f 51/123/26 49/124/26 91/125/26
f 51/123/26 91/125/26 5/126/26
f 48/118/2 50/127/2 56/119/2
f 60/128/2 59/129/2 50/127/2
f 59/129/2 56/119/2 50/127/2
f 77/121/27 60/120/27 62/130/27
f 77/121/27 62/130/27 80/131/27
f 5/126/28 6/132/28 51/123/28
f 53/133/28 51/123/28 6/132/28
f 7/134/29 40/135/29 97/136/29
f 80/137/30 62/138/30 63/139/30
f 52/140/2 60/128/2 50/127/2
f 43/141/2 62/142/2 52/140/2
f 62/142/2 60/128/2 52/140/2
f 43/141/2 45/11/2 65/10/2
f 65/10/2 63/143/2 43/141/2
f 63/143/2 62/142/2 43/141/2
f 9/144/31 55/145/31 6/132/31
f 53/133/31 6/132/31 55/145/31
f 79/116/2 48/118/2 16/114/2
f 76/146/2 78/147/2 11/148/2
f 11/148/2 9/149/2 76/146/2
f 57/150/32 55/145/32 11/151/32
f 9/144/32 11/151/32 55/145/32
f 10/152/29 7/134/29 97/136/29
f 8/34/2 36/7/2 84/153/2
f 10/154/33 97/155/33 27/52/33
f 96/156/33 27/52/33 97/155/33
f 58/157/34 57/150/34 11/151/34
f 58/157/34 11/151/34 14/89/34
f 70/103/35 85/79/35 72/158/35
f 87/159/35 72/158/35 85/79/35
f 69/160/1 80/161/1 109/162/1
f 109/162/1 83/163/1 108/39/1
f 41/37/1 108/39/1 37/38/1
f 84/153/2 36/7/2 86/33/2
f 88/164/36 74/66/36 72/158/36
f 88/164/36 72/158/36 87/159/36
f 14/89/18 61/88/18 58/157/18
f 89/165/2 86/33/2 33/32/2
f 74/66/9 88/164/9 90/64/9
f 71/166/1 64/167/1 61/168/1
f 78/85/12 76/65/12 92/73/12
f 33/32/2 29/31/2 91/26/2
f 91/26/2 89/165/2 33/32/2
f 69/160/1 66/169/1 77/170/1
f 45/171/37 108/172/37 22/109/37
f 30/173/2 31/29/2 91/26/2
f 29/31/2 30/173/2 91/26/2
f 80/161/1 69/160/1 77/170/1
f 82/27/2 70/174/2 5/25/2
f 81/175/1 109/162/1 80/161/1
f 75/176/1 77/170/1 66/169/1
f 21/48/4 44/177/4 1/49/4
f 70/174/2 72/178/2 6/179/2
f 6/179/2 5/25/2 70/174/2
f 23/180/38 20/42/38 3/181/38
f 83/163/1 109/162/1 81/175/1
f 46/182/22 2/43/22 44/130/22
f 1/131/22 44/130/22 2/43/22
f 3/181/39 8/75/39 23/180/39
f 74/183/2 76/146/2 9/149/2
f 9/149/2 6/179/2 74/183/2
f 78/147/2 79/116/2 14/115/2
f 14/115/2 11/148/2 78/147/2
f 72/178/2 74/183/2 6/179/2
f 46/182/3 4/44/3 2/43/3
f 10/24/2 44/184/2 7/112/2
f 93/185/1 61/168/1 64/167/1
f 34/186/1 108/39/1 83/163/1
f 35/40/1 108/39/1 34/186/1
f 21/17/2 7/112/2 44/184/2
f 20/42/38 4/44/38 3/181/38
f 10/24/2 24/4/2 44/184/2
f 46/6/2 44/184/2 24/4/2
f 26/187/39 23/180/39 8/75/39
f 90/188/1 57/189/1 92/190/1
f 88/191/1 55/192/1 90/188/1
f 87/193/1 53/194/1 88/191/1
f 85/195/1 53/194/1 87/193/1
f 98/196/1 51/197/1 85/195/1
f 92/190/1 58/198/1 93/185/1
f 34/199/40 17/200/40 35/201/40
f 8/75/13 13/74/13 26/187/13
f 12/107/1 105/21/1 13/202/1
f 35/201/41 17/200/41 37/203/41
f 94/14/1 23/19/1 105/21/1
f 13/202/1 105/21/1 26/20/1
f 34/199/6 83/54/6 15/56/6
f 49/100/1 100/99/1 47/96/1
f 21/204/33 67/205/33 38/206/33
f 51/197/1 98/196/1 49/100/1
f 95/2/1 2/1/1 94/14/1
f 25/207/33 24/138/33 95/137/33
f 25/207/33 95/137/33 94/208/33
f 34/199/40 15/56/40 17/200/40
f 96/46/4 95/209/4 24/47/4
f 53/194/1 85/195/1 51/197/1
f 107/46/42 42/45/42 94/210/42
f 18/211/41 37/203/41 17/200/41
f 55/192/1 88/191/1 53/194/1
f 25/212/42 94/210/42 42/45/42
f 57/189/1 90/188/1 55/192/1
f 47/96/1 104/97/1 12/107/1
f 19/213/43 38/206/43 18/211/43
f 37/203/43 18/211/43 38/206/43
f 42/47/44 107/209/44 106/214/44
f 42/47/44 106/214/44 39/215/44
f 102/216/5 29/51/5 68/53/5
f 102/216/5 68/53/5 103/156/5
f 21/204/33 38/206/33 19/213/33
f 61/168/1 93/185/1 58/198/1
f 101/94/1 47/96/1 100/99/1
f 58/198/1 92/190/1 57/189/1
f 29/51/45 102/216/45 30/217/45
f 101/218/45 30/217/45 102/216/45
f 43/219/46 52/220/46 109/221/46
f 30/217/47 101/218/48 31/222/47
f 100/223/48 31/222/47 101/218/48
f 45/171/49 43/219/49 108/172/49
f 109/221/49 108/172/49 43/219/49
f 31/222/50 100/223/51 32/224/50
f 99/225/51 32/224/50 100/223/51
f 41/110/37 22/109/37 108/172/37
f 73/226/1 64/167/1 71/166/1
f 75/176/1 66/169/1 73/226/1
f 64/167/1 73/226/1 66/169/1
f 99/101/1 49/100/1 98/196/1
f 97/91/1 40/84/1 1/3/1
f 67/83/1 1/3/1 40/84/1
f 82/227/52 32/224/52 98/228/52
f 99/225/52 98/228/52 32/224/52
f 39/59/7 106/229/7 68/57/7
f 103/230/7 68/57/7 106/229/7
f 104/63/8 103/231/8 68/62/8
f 68/71/11 103/232/11 105/68/11
f 69/232/21 52/72/21 66/105/21
f 69/134/46 109/221/46 52/220/46
f 71/233/23 61/88/23 54/111/23
f 56/234/53 73/235/53 54/111/53
f 71/233/53 54/111/53 73/235/53
f 56/234/54 59/122/54 73/235/54
f 75/236/54 73/235/54 59/122/54
f 59/122/25 77/121/25 75/236/25
f 80/137/30 63/139/30 81/237/30
f 83/54/55 81/237/55 65/55/55
f 63/139/55 65/55/55 81/237/55
